<svg width="25" height="24" viewBox="0 0 25 24" fill="none" xmlns="http://www.w3.org/2000/svg">
<path d="M13.2 17.2501V10.7501C13.2 10.3359 12.8642 10.0001 12.45 10.0001C12.0358 10.0001 11.7 10.3359 11.7 10.7501V17.2501C11.7 17.6643 12.0358 18.0001 12.45 18.0001C12.8642 18.0001 13.2 17.6643 13.2 17.2501Z" fill="#A5A3A3"/>
<path d="M10.2 17.2501V10.7501C10.2 10.3359 9.86421 10.0001 9.45 10.0001C9.03579 10.0001 8.7 10.3359 8.7 10.7501V17.2501C8.7 17.6643 9.03579 18.0001 9.45 18.0001C9.86421 18.0001 10.2 17.6643 10.2 17.2501Z" fill="#A5A3A3"/>
<path d="M16.2 17.2501V10.7501C16.2 10.3359 15.8642 10.0001 15.45 10.0001C15.0358 10.0001 14.7 10.3359 14.7 10.7501V17.2501C14.7 17.6643 15.0358 18.0001 15.45 18.0001C15.8642 18.0001 16.2 17.6643 16.2 17.2501Z" fill="#A5A3A3"/>
<path d="M16.5 6.0001C16.5 3.8001 14.7 2.1001 12.5 2.1001C10.3 2.1001 8.5 3.8001 8.5 6.0001H3.25C2.83579 6.0001 2.5 6.33588 2.5 6.7501C2.5 7.16431 2.83579 7.5001 3.25 7.5001H4.3L5.43146 19.685C5.52696 20.7135 6.38996 21.5001 7.42289 21.5001H17.7771C18.81 21.5001 19.673 20.7135 19.7685 19.685L20.9 7.5001H21.75C22.1642 7.5001 22.5 7.16431 22.5 6.7501C22.5 6.33588 22.1642 6.0001 21.75 6.0001H16.5ZM12.5 3.6001C13.9 3.6001 15 4.7001 15 6.0001H10C10 4.7001 11.1 3.6001 12.5 3.6001ZM18.2 20.0001H6.8L5.8 7.5001H8.8C8.8 7.5001 11.3 7.5001 16.2 7.5001C16.2 7.5001 17.2 7.5001 19.2 7.5001L18.2 20.0001Z" fill="#A5A3A3"/>
</svg>
